<svg width="85" height="92" viewBox="0 0 85 92" fill="none" xmlns="http://www.w3.org/2000/svg">
<path d="M85 25.7172C85 22.8886 83.9765 19.8076 82.0419 16.8083C79.8814 13.5898 77.1216 10.8082 73.9101 8.61201C68.2864 4.68463 58.2988 0 42.5 0C26.5775 0 16.5748 4.68835 11.0074 8.61943C7.80126 10.8173 5.05301 13.6065 2.91306 16.8342C1.00476 19.8039 0 22.8886 0 25.7172V76.0641C0 79.9952 3.03678 84.1341 7.91814 86.8588C14.4416 90.5115 24.4592 92 42.5 92C60.5408 92 70.5621 90.5152 77.0781 86.8625C81.952 84.1341 85 79.9952 85 76.0641V25.7172Z" fill="#F5EBDC"/>
<path d="M76.3796 49.9975C76.7948 50.2948 77.1318 50.6883 77.3617 51.1443C77.5915 51.6003 77.7074 52.1052 77.6995 52.6159C77.6892 53.4305 77.3564 54.2078 76.7741 54.7775C76.1918 55.3472 75.4074 55.6629 74.5928 55.6553C72.9934 55.6553 72.6219 54.4947 70.3255 54.4947C68.4466 54.4947 66.0122 55.8393 66.0122 59.5263C66.0122 62.8418 67.7814 64.6287 70.421 64.6287C71.2065 64.6287 71.9496 64.2324 71.9496 63.6308C71.9496 63.1426 71.5073 62.9586 70.8881 62.9586C69.6107 62.9586 67.8946 62.0527 67.8946 60.1526C67.8946 58.065 69.4727 57.1167 71.5108 57.1167H72.6502C76.5672 57.1167 78.5133 59.2716 78.5133 62.3783C78.5133 67.2931 75.0598 70.6545 69.6107 70.6545C64.4164 70.6545 59.1548 67.1162 59.1548 59.5263C59.1548 51.5968 64.4164 48.2035 69.8195 48.2035C72.8342 48.2035 74.9678 48.9678 76.3832 50.0116" fill="#D53833"/>
<path d="M45.4966 61.6351C45.4966 61.2211 45.6345 61.0335 45.8893 61.0335C46.0733 61.0335 46.2148 61.1503 46.3776 61.4758L49.5975 67.7352C50.8289 70.1236 52.1487 70.6792 53.5641 70.6792C55.9985 70.6792 57.3431 68.8463 57.3431 66.5534V52.223C57.3431 49.9761 56.0445 48.1892 53.6561 48.1892C51.2677 48.1892 49.9691 49.9761 49.9691 52.223V57.2333C49.9691 57.6508 49.8311 57.8348 49.5763 57.8348C49.3888 57.8348 49.2508 57.7181 49.088 57.3925L45.8645 51.1331C44.6367 48.7447 43.3629 48.1892 41.9016 48.1892C39.4671 48.1892 38.1226 50.0221 38.1226 52.315V66.6454C38.1226 68.8923 39.4211 70.6792 41.8096 70.6792C44.198 70.6792 45.4966 68.8923 45.4966 66.6454V61.6351Z" fill="#D53833"/>
<path d="M13.8954 66.5746V63.2839C13.8954 63.0044 14.0086 62.7956 14.2882 62.7956C14.6597 62.7956 14.7517 63.1672 14.8437 63.3512C15.7655 65.3647 16.9558 67.2442 18.3821 68.9383C19.3551 69.9998 20.5617 70.6792 21.8391 70.6792C22.8717 70.6591 23.8576 70.2447 24.5944 69.521C25.3313 68.7973 25.7634 67.8191 25.8021 66.7869C25.8021 65.5344 25.2678 64.6073 24.2487 63.4962C23.0348 62.1919 21.9038 60.8128 20.8625 59.367C20.7266 59.1863 20.6467 58.9698 20.6325 58.7442C20.6325 58.4859 20.7705 58.3019 21.05 58.0365C21.6975 57.4315 23.2969 55.9135 24.1815 54.5583C24.7553 53.7401 25.0842 52.7754 25.1298 51.7771C25.1298 49.7602 23.2969 48.1821 21.3048 48.1821C20.0274 48.1821 18.8279 48.8898 18.0105 50.2238C16.9207 51.993 15.6257 54.024 14.7906 54.8237C14.5818 55.0324 14.4651 55.0784 14.3023 55.0784C14.0228 55.0784 13.9096 54.8909 13.9096 54.5901V52.2725C13.9096 50.0008 12.565 48.168 10.1306 48.168C7.69615 48.168 6.35156 50.0008 6.35156 52.2725V66.5534C6.35156 68.8251 7.67138 70.6579 10.1306 70.6579C12.5897 70.6579 13.9096 68.8251 13.9096 66.5534" fill="#D53833"/>
<path d="M8.23774 73.0217C6.89315 73.0217 6.28809 73.6693 6.28809 74.7909C6.28809 76.7866 8.12097 79.5677 11.7372 81.6094C17.7524 85.0169 28.1058 85.9899 42.4114 85.9899C56.7171 85.9899 67.0598 85.0169 73.0857 81.6094C76.7019 79.5677 78.5348 76.7866 78.5348 74.7909C78.5348 73.6551 77.9333 73.0217 76.5887 73.0217H8.23774Z" fill="#F58443"/>
<path d="M76.5887 28.76C77.9333 28.76 78.5348 28.0523 78.5348 26.8139C78.5348 19.3833 67.1518 6.29126 42.4114 6.29126C17.4411 6.29126 6.28809 19.3833 6.28809 26.8139C6.28809 28.0629 6.89315 28.76 8.23774 28.76H76.5887Z" fill="#F58443"/>
<path d="M24.0474 46.8447C27.8051 46.8447 29.8008 44.5943 29.8008 41.7672V33.9686C29.8008 32.578 28.987 31.4634 27.5044 31.4634C26.0218 31.4634 25.208 32.5532 25.208 33.9686V41.5265C25.2195 41.684 25.1977 41.8422 25.1441 41.9907C25.0905 42.1392 25.0062 42.2748 24.8967 42.3886C24.7872 42.5024 24.655 42.5919 24.5087 42.6513C24.3624 42.7106 24.2052 42.7385 24.0474 42.7331C23.2159 42.7331 22.9363 42.0821 22.9363 41.5265V33.9686C22.9363 32.578 22.1013 31.4634 20.6187 31.4634C19.1361 31.4634 18.3223 32.5532 18.3223 33.9686V41.753C18.3223 44.5837 20.2931 46.8306 24.0474 46.8306" fill="#D53833"/>
<path d="M63.3942 40.932C64.5088 40.932 65.3899 40.2597 65.3899 39.0779C65.3899 37.8961 64.5088 37.2238 63.3942 37.2238H61.7949C61.7204 37.2331 61.6448 37.2261 61.5732 37.2032C61.5017 37.1803 61.4361 37.1421 61.3808 37.0912C61.3256 37.0404 61.2821 36.9781 61.2534 36.9087C61.2247 36.8393 61.2115 36.7645 61.2146 36.6895V36.3356C61.2114 36.2607 61.2246 36.1861 61.2533 36.1168C61.282 36.0476 61.3256 35.9855 61.3809 35.9349C61.4362 35.8843 61.502 35.8464 61.5735 35.824C61.645 35.8015 61.7206 35.795 61.7949 35.8049H63.8825C65.1811 35.8049 66.2002 35.0371 66.2002 33.6465C66.2002 32.2559 65.1811 31.5234 63.8825 31.5234H59.4985C57.6691 31.5234 56.7881 32.585 56.7881 34.0286V44.2298C56.7881 45.6664 57.6691 46.7314 59.4985 46.7314H63.8825C65.1811 46.7314 66.2002 45.9671 66.2002 44.5765C66.2002 43.186 65.1811 42.4535 63.8825 42.4535H61.7949C61.7203 42.4635 61.6444 42.4569 61.5726 42.4342C61.5008 42.4116 61.4349 42.3734 61.3795 42.3224C61.3241 42.2714 61.2806 42.2089 61.2521 42.1392C61.2236 42.0695 61.2108 41.9944 61.2146 41.9192V41.4805C61.2115 41.4054 61.2247 41.3306 61.2534 41.2612C61.2821 41.1919 61.3256 41.1296 61.3808 41.0787C61.4361 41.0279 61.5017 40.9897 61.5732 40.9668C61.6448 40.9439 61.7204 40.9368 61.7949 40.9462H63.3942" fill="#D53833"/>
<path d="M54.2827 32.6098C54.5619 32.8202 54.7872 33.0938 54.9403 33.408C55.0935 33.7223 55.17 34.0683 55.1638 34.4179C55.1657 34.6905 55.1138 34.9608 55.011 35.2133C54.9083 35.4658 54.7569 35.6956 54.5653 35.8895C54.3736 36.0834 54.1457 36.2376 53.8944 36.3433C53.6432 36.449 53.3735 36.5041 53.1009 36.5055C52.0394 36.5055 51.7776 35.7165 50.249 35.7165C48.9964 35.7165 47.3723 36.6435 47.3723 39.1947C47.3723 41.4876 48.5576 42.7331 50.295 42.7331C50.8505 42.7331 51.3565 42.4535 51.3565 42.0254C51.3565 41.6999 51.077 41.5619 50.6488 41.5619C50.3911 41.5675 50.1349 41.5221 49.8948 41.4282C49.6548 41.3343 49.4357 41.1939 49.2502 41.015C49.0647 40.836 48.9164 40.6222 48.814 40.3857C48.7115 40.1492 48.6568 39.8947 48.6532 39.637C48.6532 38.1756 49.7147 37.514 51.0876 37.514H51.8306C54.4278 37.514 55.7229 38.9965 55.7229 41.155C55.7229 44.5377 53.4264 46.8588 49.7854 46.8588C46.332 46.8588 42.8325 44.4244 42.8325 39.1841C42.8325 33.7102 46.332 31.3466 49.927 31.3466C51.9651 31.3466 53.3344 31.8809 54.3075 32.5991" fill="#D53833"/>
<path d="M35.4336 52.5697C35.4336 50.1353 34.0183 48.1892 31.4211 48.1892C28.8239 48.1892 27.4121 50.1353 27.4121 52.5697V66.2987C27.4121 68.7295 28.8275 70.6792 31.4211 70.6792C34.0147 70.6792 35.4336 68.7295 35.4336 66.2987V52.5697Z" fill="#D53833"/>
<path d="M15.7245 38.8445C15.6112 38.7525 15.4945 38.6605 15.4945 38.5685C15.4945 38.4765 15.5652 38.4057 15.6785 38.2677C16.2693 37.5689 16.5828 36.6774 16.5595 35.7625C16.5595 32.9814 14.6806 31.4917 11.7615 31.4917H9.00153C7.16865 31.4917 6.27344 32.5532 6.27344 34.0004V44.2299C6.27344 45.6665 7.1545 46.7315 8.98738 46.7315H12.2887C15.3706 46.7315 17.2424 44.6686 17.2424 42.0962C17.2628 41.4731 17.136 40.8539 16.8722 40.2889C16.6085 39.7239 16.2153 39.229 15.7245 38.8445ZM10.3709 35.483C10.3671 35.4083 10.3798 35.3336 10.4081 35.2644C10.4365 35.1951 10.4797 35.133 10.5347 35.0823C10.5898 35.0316 10.6553 34.9937 10.7267 34.9712C10.7981 34.9488 10.8735 34.9423 10.9476 34.9522H11.2519C11.4264 34.9365 11.6022 34.9593 11.7669 35.019C11.9316 35.0787 12.0812 35.1738 12.2051 35.2977C12.3289 35.4216 12.4241 35.5711 12.4838 35.7358C12.5435 35.9005 12.5663 36.0763 12.5505 36.2508C12.5637 36.4267 12.5394 36.6033 12.4794 36.7691C12.4194 36.9349 12.3249 37.0862 12.2023 37.2128C12.0796 37.3395 11.9315 37.4388 11.7677 37.5041C11.6039 37.5695 11.4281 37.5994 11.2519 37.5919H10.9476C10.8735 37.6018 10.7981 37.5954 10.7267 37.5729C10.6553 37.5504 10.5898 37.5125 10.5347 37.4618C10.4797 37.4112 10.4365 37.349 10.4081 37.2797C10.3798 37.2105 10.3671 37.1358 10.3709 37.0611V35.483ZM11.3652 43.2674H10.9476C10.8735 43.2774 10.7981 43.2709 10.7267 43.2485C10.6553 43.226 10.5898 43.1881 10.5347 43.1374C10.4797 43.0867 10.4365 43.0246 10.4081 42.9553C10.3798 42.8861 10.3671 42.8114 10.3709 42.7367V40.9286C10.3666 40.8536 10.3789 40.7785 10.407 40.7088C10.435 40.6391 10.4782 40.5765 10.5333 40.5254C10.5884 40.4744 10.6542 40.4361 10.7258 40.4135C10.7974 40.3908 10.8732 40.3842 10.9476 40.3943H11.3652C12.4798 40.3943 12.8053 41.1373 12.8053 41.8096C12.8161 42.0016 12.7862 42.1936 12.7176 42.3732C12.649 42.5528 12.5433 42.7159 12.4074 42.8519C12.2715 42.9878 12.1084 43.0935 11.9288 43.1621C11.7492 43.2306 11.5571 43.2605 11.3652 43.2498V43.2674Z" fill="#D53833"/>
<path d="M41.8316 42.8145C41.1593 41.9335 40.5578 41.1692 40.257 40.3554C40.2206 40.2626 40.2192 40.1597 40.253 40.0659C40.2869 39.9722 40.3537 39.8939 40.441 39.8458C41.1487 39.2903 41.9944 38.0766 41.9944 36.1128C41.9944 33.1689 39.56 31.5129 36.616 31.5129H33.9976C32.1647 31.5129 31.2837 32.5745 31.2837 34.0181V44.3573C31.2837 45.7479 32.094 46.8625 33.5801 46.8625C35.0662 46.8625 35.873 45.7479 35.873 44.3573V41.9016C35.873 41.6009 36.0145 41.4593 36.2268 41.4593C36.4391 41.4593 36.5807 41.6221 36.6443 41.9016C36.8531 43.0835 37.4086 44.6828 38.0349 45.4931C38.824 46.5546 39.567 46.8625 40.3066 46.8625C40.8845 46.8722 41.4434 46.6556 41.8639 46.2589C42.2843 45.8623 42.5331 45.317 42.557 44.7394C42.5529 44.0317 42.2956 43.3489 41.8316 42.8145ZM36.524 37.9917H36.1985C36.124 38.001 36.0484 37.994 35.9769 37.9711C35.9053 37.9482 35.8397 37.91 35.7844 37.8592C35.7292 37.8083 35.6857 37.746 35.657 37.6766C35.6283 37.6072 35.6151 37.5324 35.6182 37.4574V35.8793C35.6151 35.8043 35.6283 35.7295 35.657 35.6601C35.6857 35.5907 35.7292 35.5284 35.7844 35.4776C35.8397 35.4267 35.9053 35.3885 35.9769 35.3656C36.0484 35.3427 36.124 35.3357 36.1985 35.345H36.524C36.6967 35.3325 36.87 35.3577 37.0319 35.4188C37.1938 35.48 37.3405 35.5757 37.4617 35.6993C37.5829 35.8229 37.6758 35.9713 37.7338 36.1344C37.7919 36.2975 37.8137 36.4712 37.7979 36.6436C37.8135 36.8181 37.7919 36.9939 37.7344 37.1594C37.6769 37.3248 37.5849 37.4762 37.4644 37.6034C37.3439 37.7305 37.1978 37.8306 37.0356 37.897C36.8735 37.9633 36.6991 37.9944 36.524 37.9882V37.9917Z" fill="#D53833"/>
<path d="M77.7918 42.8145C77.0028 41.8167 76.518 41.1692 76.2172 40.3554C76.1808 40.2626 76.1794 40.1597 76.2132 40.0659C76.2471 39.9722 76.3139 39.8939 76.4012 39.8458C77.1089 39.2903 77.9546 38.0766 77.9546 36.1128C77.9546 33.1689 75.5202 31.5129 72.5762 31.5129H69.9649C68.132 31.5129 67.251 32.5745 67.251 34.0181V44.3573C67.251 45.7479 68.0613 46.8625 69.5474 46.8625C71.0335 46.8625 71.8403 45.7479 71.8403 44.3573V41.9016C71.8403 41.6009 71.9818 41.4593 72.2118 41.4593C72.4418 41.4593 72.5656 41.6221 72.6293 41.9016C72.8381 43.0835 73.3936 44.6828 74.0199 45.4931C74.809 46.5546 75.552 46.8625 76.2916 46.8625C76.8695 46.8722 77.4284 46.6556 77.8488 46.2589C78.2693 45.8623 78.518 45.317 78.542 44.7394C78.5311 44.0286 78.2648 43.3453 77.7918 42.8145ZM72.4842 37.9917H72.1587C72.0842 38.001 72.0086 37.994 71.9371 37.9711C71.8655 37.9482 71.7999 37.91 71.7446 37.8592C71.6894 37.8083 71.6459 37.746 71.6172 37.6766C71.5885 37.6072 71.5753 37.5324 71.5784 37.4574V35.8793C71.5753 35.8043 71.5885 35.7295 71.6172 35.6601C71.6459 35.5907 71.6894 35.5284 71.7446 35.4776C71.7999 35.4267 71.8655 35.3885 71.9371 35.3656C72.0086 35.3427 72.0842 35.3357 72.1587 35.345H72.4842C72.6569 35.3325 72.8302 35.3577 72.9921 35.4188C73.154 35.48 73.3007 35.5757 73.4219 35.6993C73.5431 35.8229 73.636 35.9713 73.694 36.1344C73.7521 36.2975 73.7739 36.4712 73.7581 36.6436C73.7737 36.8181 73.7521 36.9939 73.6946 37.1594C73.6371 37.3248 73.5451 37.4762 73.4246 37.6034C73.3041 37.7305 73.158 37.8306 72.9958 37.897C72.8337 37.9633 72.6593 37.9944 72.4842 37.9882V37.9917Z" fill="#D53833"/>
<path d="M78.1032 69.5081C77.9527 69.5067 77.8034 69.5353 77.6641 69.5923C77.5248 69.6492 77.3983 69.7333 77.2919 69.8397C77.1854 69.9461 77.1013 70.0727 77.0444 70.212C76.9874 70.3513 76.9588 70.5006 76.9603 70.651C76.9516 70.8067 76.9748 70.9625 77.0284 71.1089C77.082 71.2553 77.1649 71.3893 77.2721 71.5025C77.3792 71.6158 77.5083 71.706 77.6515 71.7677C77.7947 71.8293 77.949 71.8611 78.1049 71.8611C78.2608 71.8611 78.4151 71.8293 78.5583 71.7677C78.7015 71.706 78.8306 71.6158 78.9378 71.5025C79.0449 71.3893 79.1278 71.2553 79.1815 71.1089C79.2351 70.9625 79.2583 70.8067 79.2496 70.651C79.251 70.5003 79.2223 70.3507 79.1652 70.2112C79.108 70.0716 79.0236 69.9449 78.9168 69.8385C78.81 69.732 78.683 69.6479 78.5433 69.5912C78.4036 69.5345 78.2539 69.5063 78.1032 69.5081ZM78.1032 71.571C77.8704 71.5565 77.6519 71.4539 77.4922 71.2839C77.3325 71.114 77.2436 70.8896 77.2436 70.6563C77.2436 70.4231 77.3325 70.1987 77.4922 70.0288C77.6519 69.8588 77.8704 69.7562 78.1032 69.7417C78.3359 69.7562 78.5544 69.8588 78.7141 70.0288C78.8738 70.1987 78.9627 70.4231 78.9627 70.6563C78.9627 70.8896 78.8738 71.114 78.7141 71.2839C78.5544 71.4539 78.3359 71.5565 78.1032 71.571Z" fill="#D53833"/>
<path d="M78.2588 70.7855C78.3056 70.7832 78.3515 70.7717 78.3938 70.7516C78.4361 70.7314 78.474 70.7031 78.5053 70.6682C78.5365 70.6333 78.5606 70.5925 78.5759 70.5483C78.5913 70.504 78.5978 70.4572 78.5949 70.4104C78.5901 70.3584 78.5749 70.3079 78.5503 70.2618C78.5257 70.2157 78.4922 70.175 78.4516 70.1421C78.4111 70.1091 78.3644 70.0846 78.3143 70.0699C78.2642 70.0552 78.2116 70.0507 78.1597 70.0566H77.8306C77.7993 70.0592 77.7701 70.0733 77.7485 70.0961C77.727 70.119 77.7146 70.149 77.7139 70.1804V71.1535C77.7148 71.1841 77.7273 71.2133 77.7491 71.235C77.7708 71.2568 77.7999 71.2693 77.8306 71.2702C77.8629 71.2712 77.8943 71.2595 77.9181 71.2377C77.9419 71.2159 77.9562 71.1857 77.958 71.1535V70.8173H77.9934L78.3472 71.2242C78.3593 71.2401 78.3748 71.2532 78.3926 71.2624C78.4103 71.2715 78.4299 71.2766 78.4499 71.2773C78.4655 71.2784 78.4811 71.276 78.4957 71.2705C78.5104 71.265 78.5237 71.2565 78.5347 71.2454C78.5458 71.2344 78.5544 71.2211 78.5599 71.2064C78.5654 71.1918 78.5677 71.1761 78.5666 71.1605C78.5619 71.1312 78.5483 71.104 78.5277 71.0827L78.2588 70.7855ZM77.958 70.5909V70.2689H78.1526C78.2765 70.2689 78.3437 70.3255 78.3437 70.4281C78.3437 70.5307 78.2659 70.5909 78.1279 70.5909H77.958Z" fill="#D53833"/>
</svg>
